<?xml version="1.0" encoding="UTF-8" standalone="no"?>
<!-- Uploaded to: SVG Repo, www.svgrepo.com, Generator: SVG Repo Mixer Tools -->

<svg
   height="100"
   width="250"
   version="1.1"
   id="_x32_"
   viewBox="0 0 160 64"
   xml:space="preserve"
   sodipodi:docname="logoH.svg"
   inkscape:version="1.4.2 (ebf0e940, 2025-05-08)"
   xmlns:inkscape="http://www.inkscape.org/namespaces/inkscape"
   xmlns:sodipodi="http://sodipodi.sourceforge.net/DTD/sodipodi-0.dtd"
   xmlns:xlink="http://www.w3.org/1999/xlink"
   xmlns="http://www.w3.org/2000/svg"
   xmlns:svg="http://www.w3.org/2000/svg"><defs
   id="defs1"><inkscape:path-effect
     effect="spiro"
     id="path-effect41"
     is_visible="true"
     lpeversion="1" /><linearGradient
     id="swatch40"
     inkscape:swatch="solid"><stop
       style="stop-color:#cd9e00;stop-opacity:1;"
       offset="0"
       id="stop41" /></linearGradient><linearGradient
     id="swatch25"
     inkscape:swatch="solid"><stop
       style="stop-color:#000000;stop-opacity:1;"
       offset="0"
       id="stop25" /></linearGradient><rect
     x="147.42123"
     y="32.111553"
     width="132.82506"
     height="51.086563"
     id="rect1" /><linearGradient
     inkscape:collect="always"
     xlink:href="#swatch40"
     id="linearGradient41"
     x1="-1.3469258e-05"
     y1="256"
     x2="512"
     y2="256"
     gradientUnits="userSpaceOnUse" /></defs><sodipodi:namedview
   id="namedview1"
   pagecolor="#505050"
   bordercolor="#ffffff"
   borderopacity="1"
   inkscape:showpageshadow="0"
   inkscape:pageopacity="0"
   inkscape:pagecheckerboard="1"
   inkscape:deskcolor="#505050"
   showgrid="true"
   inkscape:zoom="1.3702233"
   inkscape:cx="176.97845"
   inkscape:cy="113.85006"
   inkscape:window-width="1512"
   inkscape:window-height="917"
   inkscape:window-x="0"
   inkscape:window-y="65"
   inkscape:window-maximized="0"
   inkscape:current-layer="_x32_"><inkscape:grid
     id="grid1"
     units="px"
     originx="0"
     originy="0"
     spacingx="0.64"
     spacingy="0.64"
     empcolor="#0099e5"
     empopacity="0.30196078"
     color="#0099e5"
     opacity="0.14902"
     empspacing="5"
     enabled="true"
     visible="true" /></sodipodi:namedview>
<style
   type="text/css"
   id="style1">
	.st0{fill:#000000;}
</style>
<g
   id="g1"
   transform="matrix(0.20457889,-6.0056301e-4,0.00449283,0.13310023,1.0322384,-2.3373231)"
   style="fill:#ba8e00;fill-opacity:0.56013745"
   inkscape:transform-center-x="-2.6361261"
   inkscape:transform-center-y="-0.87224404">
	<path
   class="st0"
   d="m 506.663,405.366 c -3.461,-6.338 -8.574,-11.877 -15.002,-15.908 L 261.733,245.175 V 224.78 c -0.004,-0.702 0.333,-1.336 0.836,-1.784 2.056,-0.18 4.778,-0.508 7.98,-1.135 6.559,-1.299 15.178,-3.688 23.833,-9.272 12.695,-8.256 23.217,-19.498 30.597,-32.787 7.375,-13.288 11.586,-28.652 11.582,-44.859 0.008,-25.501 -10.392,-48.756 -27.106,-65.456 -16.693,-16.714 -39.947,-27.099 -65.44,-27.099 -19.108,0 -37.013,5.83 -51.765,15.812 -14.759,9.98 -26.464,24.075 -33.508,40.708 -3.811,9.011 0.411,19.41 9.421,23.224 9.014,3.808 19.417,-0.403 23.225,-9.413 4.322,-10.228 11.59,-18.984 20.712,-25.144 9.13,-6.158 20.026,-9.742 31.914,-9.742 15.815,0 29.984,6.36 40.376,16.73 10.362,10.384 16.718,24.553 16.722,40.38 -0.004,10.093 -2.58,19.447 -7.126,27.651 -4.547,8.19 -11.079,15.178 -18.917,20.269 -3.054,2.038 -7.6,3.531 -11.274,4.217 -1.828,0.351 -3.415,0.538 -4.449,0.62 -0.522,0.052 -0.9,0.075 -1.097,0.082 h -0.105 l -2.404,0.03 -2.359,0.702 c -16.065,4.756 -27.091,19.507 -27.095,36.267 v 20.94 L 18.578,390.622 18.582,390.608 C 6.716,398.886 -0.011,412.301 0,426.217 c 0,4.344 0.658,8.742 2.001,13.004 5.684,18.096 22.444,30.391 41.399,30.391 h 425.197 c 19.35,0 36.352,-12.803 41.708,-31.399 v -0.008 c 1.132,-3.964 1.695,-8.003 1.695,-11.989 0,-7.353 -1.87,-14.505 -5.337,-20.85 z m -30.421,23.06 v -0.008 c -0.978,3.397 -4.102,5.756 -7.644,5.756 H 43.4 c -3.475,0 -6.548,-2.27 -7.585,-5.569 -0.258,-0.806 -0.369,-1.605 -0.369,-2.389 0.007,-2.553 1.224,-5.017 3.4,-6.525 h 0.008 L 244.53,276.224 472.822,419.475 c 1.206,0.762 2.102,1.747 2.748,2.912 0.642,1.164 0.989,2.486 0.989,3.83 0,0.724 -0.105,1.448 -0.317,2.209 z"
   id="path1"
   style="fill:#ba8e00;fill-opacity:0.56013745" />
</g>
<text
   xml:space="preserve"
   transform="matrix(0.8927792,0.38627747,-0.39700189,0.91756593,-32.956582,-60.273298)"
   id="text1"
   style="font-style:normal;font-variant:normal;font-weight:normal;font-stretch:normal;font-size:12px;font-family:Tahoma;-inkscape-font-specification:'Tahoma, Normal';font-variant-ligatures:normal;font-variant-caps:normal;font-variant-numeric:normal;font-variant-east-asian:normal;text-align:start;writing-mode:lr-tb;direction:ltr;white-space:pre;shape-inside:url(#rect1);display:inline;fill:#a28700;fill-opacity:1"><tspan
     x="147.42188"
     y="43.059292"
     id="tspan2">CLOTHSESS</tspan></text><path
   style="fill:#a28700;fill-opacity:1;fill-rule:nonzero;stroke-width:0.98624;stroke-dasharray:none;paint-order:stroke fill markers"
   d="M -22.419703,-40.635712 -2.8024629,85.475117 v 0"
   id="path41"
   inkscape:path-effect="#path-effect41"
   inkscape:original-d="m -22.419703,-40.635712 c 7.006157,41.8812511 13.07816,84.22958 19.6172401,126.110829 6.5390801,41.881253 0.1556924,-0.155693 0,0" /></svg>
